<svg width="45" height="40" viewBox="0 0 45 40" fill="none" xmlns="http://www.w3.org/2000/svg">
<path d="M25 21.5C25.8284 21.5 26.5 20.8284 26.5 20C26.5 19.1716 25.8284 18.5 25 18.5C24.1716 18.5 23.5 19.1716 23.5 20C23.5 20.8284 24.1716 21.5 25 21.5Z" fill="#262626"/>
<path d="M19.5 21.5C20.3284 21.5 21 20.8284 21 20C21 19.1716 20.3284 18.5 19.5 18.5C18.6716 18.5 18 19.1716 18 20C18 20.8284 18.6716 21.5 19.5 21.5Z" fill="#262626"/>
<path d="M30.5 21.5C31.3284 21.5 32 20.8284 32 20C32 19.1716 31.3284 18.5 30.5 18.5C29.6716 18.5 29 19.1716 29 20C29 20.8284 29.6716 21.5 30.5 21.5Z" fill="#262626"/>
</svg>
